<?xml version="1.0" encoding="UTF-8" standalone="no"?>
<svg
   xmlns:dc="http://purl.org/dc/elements/1.1/"
   xmlns:cc="http://creativecommons.org/ns#"
   xmlns:rdf="http://www.w3.org/1999/02/22-rdf-syntax-ns#"
   xmlns:svg="http://www.w3.org/2000/svg"
   xmlns="http://www.w3.org/2000/svg"
   xmlns:sodipodi="http://sodipodi.sourceforge.net/DTD/sodipodi-0.dtd"
   xmlns:inkscape="http://www.inkscape.org/namespaces/inkscape"
   style="fill-opacity:1; color-rendering:auto; color-interpolation:auto; text-rendering:auto; stroke:black; stroke-linecap:square; stroke-miterlimit:10; shape-rendering:auto; stroke-opacity:1; fill:black; stroke-dasharray:none; font-weight:normal; stroke-width:1; font-family:'Dialog'; font-style:normal; stroke-linejoin:miter; font-size:12px; stroke-dashoffset:0; image-rendering:auto;"
   width="182"
   height="170"
   version="1.1"
   id="svg81"
   sodipodi:docname="figcon13.svg"
   inkscape:version="0.92.4 (5da689c313, 2019-01-14)">
  <metadata
     id="metadata85">
    <rdf:RDF>
      <cc:Work
         rdf:about="">
        <dc:format>image/svg+xml</dc:format>
        <dc:type
           rdf:resource="http://purl.org/dc/dcmitype/StillImage" />
      </cc:Work>
    </rdf:RDF>
  </metadata>
  <sodipodi:namedview
     pagecolor="#ffffff"
     bordercolor="#666666"
     borderopacity="1"
     objecttolerance="10"
     gridtolerance="10"
     guidetolerance="10"
     inkscape:pageopacity="0"
     inkscape:pageshadow="2"
     inkscape:window-width="1366"
     inkscape:window-height="715"
     id="namedview83"
     showgrid="false"
     inkscape:zoom="1.3882353"
     inkscape:cx="91"
     inkscape:cy="85"
     inkscape:window-x="-8"
     inkscape:window-y="-8"
     inkscape:window-maximized="1"
     inkscape:current-layer="svg81" />
  <!--Generated by the Batik Graphics2D SVG Generator-->
  <defs
     id="genericDefs">
    <defs
       id="defs1">
      <clipPath
         id="clipPath1"
         clipPathUnits="userSpaceOnUse">
        <path
           id="path3"
           d="M0 0 L182 0 L182 170 L0 170 L0 0 Z" />
      </clipPath>
    </defs>
  </defs>
  <g
     id="g957"
     transform="translate(-23.679748,21.651576)">
    <g
       transform="matrix(0.66679039,0,0,0.69578961,7.8990528,45.13962)"
       style="color-interpolation:linearRGB;fill:#262626;stroke:#262626;stroke-width:0.66670001;stroke-linejoin:round;color-rendering:optimizeQuality;image-rendering:optimizeQuality;text-rendering:geometricPrecision"
       id="g21">
      <line
         y2="148"
         style="fill:none"
         x1="24"
         x2="165"
         y1="148"
         id="line17" />
      <line
         y2="13"
         style="fill:none"
         x1="24"
         x2="165"
         y1="13"
         id="line19" />
    </g>
    <g
       transform="matrix(0.66679039,0,0,0.69578961,7.8990528,45.13962)"
       style="color-interpolation:linearRGB;fill:#262626;stroke:#262626;stroke-width:0.66670001;stroke-linejoin:round;color-rendering:optimizeQuality;image-rendering:optimizeQuality;text-rendering:geometricPrecision"
       id="g35">
      <line
         y2="148"
         style="fill:none"
         x1="24"
         x2="24"
         y1="13"
         id="line31" />
      <line
         y2="148"
         style="fill:none"
         x1="165"
         x2="165"
         y1="13"
         id="line33" />
    </g>
    <g
       transform="matrix(0.66679039,0,0,0.69578961,7.8990528,45.13962)"
       style="color-interpolation:sRGB;fill:#ffffff;stroke:#ffffff;color-rendering:optimizeSpeed;image-rendering:optimizeSpeed;shape-rendering:crispEdges;text-rendering:optimizeSpeed"
       id="g53">
      <path
         style="stroke:none"
         d="M 24,13 V 80.5 H 94.5 V 13 Z"
         id="path45"
         inkscape:connector-curvature="0" />
      <path
         d="M 24,80.5 V 148 H 94.5 V 80.5 Z"
         style="fill:#c90000;stroke:none"
         id="path47"
         inkscape:connector-curvature="0" />
      <path
         d="M 94.5,13 V 80.5 H 165 V 13 Z"
         style="fill:#0a0000;stroke:none"
         id="path49"
         inkscape:connector-curvature="0" />
      <path
         d="M 94.5,80.5 V 148 H 165 V 80.5 Z"
         style="fill:#ffe900;stroke:none"
         id="path51"
         inkscape:connector-curvature="0" />
    </g>
    <g
       transform="matrix(0.66679039,0,0,0.69578961,7.8990528,45.13962)"
       style="color-interpolation:linearRGB;fill:#262626;stroke:#262626;stroke-width:0.66670001;stroke-linecap:butt;stroke-linejoin:round;color-rendering:optimizeQuality;image-rendering:optimizeQuality;text-rendering:geometricPrecision"
       id="g61">
      <line
         y2="148"
         style="fill:none"
         x1="94.5"
         x2="94.5"
         y1="13"
         id="line55" />
      <line
         y2="80.5"
         style="fill:none"
         x1="24"
         x2="165"
         y1="80.5"
         id="line57" />
      <path
         d="M 24,13 H 165 V 148 H 24 Z"
         style="fill:none;fill-rule:evenodd;stroke-linejoin:miter"
         id="path59"
         inkscape:connector-curvature="0" />
    </g>
    <g
       transform="matrix(0.66679039,0,0,0.69578961,47.406384,77.667785)"
       style="font-size:13.33329964px;font-family:SansSerif;color-interpolation:linearRGB;color-rendering:optimizeQuality;image-rendering:optimizeQuality;text-rendering:geometricPrecision"
       id="g65">
      <path
         style="stroke:none"
         d="m -16.4531,0.9062 q 0,-1.6406 0.3359,-2.6484 0.336,-1.0078 1.0078,-1.5547 0.6719,-0.5469 1.6875,-0.5469 0.75,0 1.3125,0.3047 0.5625,0.3047 0.9297,0.8672 0.3672,0.5625 0.5781,1.3828 0.211,0.8203 0.211,2.1953 0,1.6407 -0.336,2.6485 -0.3359,1.0078 -1.0078,1.5547 -0.6718,0.5468 -1.6875,0.5468 -1.3437,0 -2.125,-0.9687 -0.9062,-1.1563 -0.9062,-3.7813 z m 1.1719,0 q 0,2.2969 0.5312,3.0547 0.5312,0.7579 1.3281,0.7579 0.7813,0 1.3203,-0.7579 0.5391,-0.7578 0.5391,-3.0547 0,-2.2968 -0.5391,-3.0468 -0.539,-0.75 -1.3359,-0.75 -0.7813,0 -1.2656,0.6562 -0.5781,0.8594 -0.5781,3.1406 z M -8.4087,5.5 V 4.2031 h 1.2969 V 5.5 Z M -5.1788,3.3438 -4.0851,3.25 q 0.1406,0.7656 0.5313,1.1172 0.3906,0.3516 1.0156,0.3516 0.5156,0 0.9141,-0.2422 0.3984,-0.2422 0.6562,-0.6407 0.2578,-0.3984 0.4219,-1.0859 0.164,-0.6875 0.164,-1.4062 0,-0.0782 0,-0.2188 -0.3437,0.5469 -0.9375,0.8828 -0.5937,0.336 -1.2812,0.336 -1.1563,0 -1.9531,-0.836 -0.7969,-0.8359 -0.7969,-2.2109 0,-1.4219 0.8281,-2.2813 0.8281,-0.8594 2.0938,-0.8594 0.9062,0 1.6562,0.4922 0.75,0.4922 1.1406,1.3907 0.3907,0.8984 0.3907,2.6171 0,1.7813 -0.3828,2.836 -0.3829,1.0547 -1.1485,1.6094 -0.7656,0.5546 -1.7969,0.5546 -1.0937,0 -1.789,-0.6015 -0.6953,-0.6016 -0.8203,-1.7109 z m 4.6718,-4.1094 q 0,-0.9844 -0.5234,-1.5547 -0.5234,-0.5703 -1.2578,-0.5703 -0.7656,0 -1.3281,0.6172 -0.5625,0.6172 -0.5625,1.6172 0,0.875 0.5312,1.4296 0.5313,0.5547 1.3281,0.5547 0.7969,0 1.3047,-0.5547 0.5078,-0.5546 0.5078,-1.539 z M 3.8031,0.4531 Q 3.0999,0.1875 2.7562,-0.2891 2.4124,-0.7656 2.4124,-1.4375 q 0,-1.0156 0.7266,-1.7109 0.7266,-0.6954 1.9453,-0.6954 1.2188,0 1.961,0.711 0.7421,0.7109 0.7421,1.7266 0,0.6406 -0.3437,1.1171 -0.3438,0.4766 -1.0313,0.7422 0.8594,0.2813 1.3047,0.9063 0.4453,0.625 0.4453,1.4844 0,1.1874 -0.8437,2 -0.8438,0.8124 -2.2188,0.8124 -1.375,0 -2.2187,-0.8124 -0.8438,-0.8126 -0.8438,-2.0313 0,-0.9063 0.461,-1.5234 0.4609,-0.6172 1.3047,-0.836 z M 3.5687,-1.4844 q 0,0.6563 0.4297,1.0782 0.4297,0.4218 1.1015,0.4218 0.6719,0 1.0938,-0.414 0.4219,-0.4141 0.4219,-1.0235 0,-0.625 -0.4375,-1.0547 -0.4375,-0.4296 -1.0782,-0.4296 -0.6562,0 -1.0937,0.4218 -0.4375,0.4219 -0.4375,1 z M 3.2093,2.8125 q 0,0.4844 0.2344,0.9453 0.2344,0.461 0.6875,0.711 0.4531,0.25 0.9844,0.25 0.8125,0 1.3437,-0.5235 Q 6.9906,3.6719 6.9906,2.8594 6.9906,2.0312 6.4437,1.4922 5.8968,0.9531 5.0687,0.9531 4.2718,0.9531 3.7406,1.4844 3.2093,2.0156 3.2093,2.8125 Z M 9.6287,3.3438 10.7225,3.25 q 0.1406,0.7656 0.5312,1.1172 0.3906,0.3516 1.0156,0.3516 0.5157,0 0.9141,-0.2422 0.3984,-0.2422 0.6563,-0.6407 0.2578,-0.3984 0.4218,-1.0859 0.1641,-0.6875 0.1641,-1.4062 0,-0.0782 0,-0.2188 -0.3438,0.5469 -0.9375,0.8828 -0.5938,0.336 -1.2813,0.336 -1.1562,0 -1.9531,-0.836 -0.7969,-0.8359 -0.7969,-2.2109 0,-1.4219 0.8282,-2.2813 0.8281,-0.8594 2.0937,-0.8594 0.9063,0 1.6563,0.4922 0.75,0.4922 1.1406,1.3907 0.3906,0.8984 0.3906,2.6171 0,1.7813 -0.3828,2.836 -0.3828,1.0547 -1.1484,1.6094 -0.7657,0.5546 -1.7969,0.5546 -1.0938,0 -1.7891,-0.6015 Q 9.7537,4.4531 9.6287,3.3438 Z m 4.6719,-4.1094 q 0,-0.9844 -0.5234,-1.5547 -0.5235,-0.5703 -1.2579,-0.5703 -0.7656,0 -1.3281,0.6172 -0.5625,0.6172 -0.5625,1.6172 0,0.875 0.5313,1.4296 0.5312,0.5547 1.3281,0.5547 0.7969,0 1.3047,-0.5547 0.5078,-0.5546 0.5078,-1.539 z"
         id="path63"
         inkscape:connector-curvature="0" />
    </g>
    <g
       transform="matrix(0.66679039,0,0,0.69578961,94.415105,124.63358)"
       style="font-size:13.33329964px;font-family:SansSerif;color-interpolation:linearRGB;color-rendering:optimizeQuality;image-rendering:optimizeQuality;text-rendering:geometricPrecision"
       id="g69">
      <path
         style="stroke:none"
         d="m -19.9531,0.9062 q 0,-1.6406 0.3359,-2.6484 0.336,-1.0078 1.0078,-1.5547 0.6719,-0.5469 1.6875,-0.5469 0.75,0 1.3125,0.3047 0.5625,0.3047 0.9297,0.8672 0.3672,0.5625 0.5781,1.3828 0.211,0.8203 0.211,2.1953 0,1.6407 -0.336,2.6485 -0.3359,1.0078 -1.0078,1.5547 -0.6718,0.5468 -1.6875,0.5468 -1.3437,0 -2.125,-0.9687 -0.9062,-1.1563 -0.9062,-3.7813 z m 1.1719,0 q 0,2.2969 0.5312,3.0547 0.5312,0.7579 1.3281,0.7579 0.7813,0 1.3203,-0.7579 0.5391,-0.7578 0.5391,-3.0547 0,-2.2968 -0.5391,-3.0468 -0.539,-0.75 -1.3359,-0.75 -0.7813,0 -1.2656,0.6562 -0.5781,0.8594 -0.5781,3.1406 z M -11.9087,5.5 V 4.2031 h 1.2969 V 5.5 Z m 3.1205,-8.0938 v -1.0937 h 6.0312 v 0.8906 q -0.8906,0.9531 -1.7656,2.5157 -0.875,1.5624 -1.3437,3.2187 Q -6.2101,4.1094 -6.3038,5.5 h -1.1719 q 0.0156,-1.0938 0.4297,-2.6484 0.414,-1.5547 1.1797,-3 0.7656,-1.4454 1.6406,-2.4454 z m 7.3413,3.5 q 0,-1.6406 0.3359,-2.6484 0.3359,-1.0078 1.0078,-1.5547 0.6719,-0.5469 1.6875,-0.5469 0.75,0 1.3125,0.3047 0.5625,0.3047 0.9297,0.8672 0.3672,0.5625 0.5781,1.3828 0.211,0.8203 0.211,2.1953 0,1.6407 -0.336,2.6485 -0.3359,1.0078 -1.0078,1.5547 -0.6719,0.5468 -1.6875,0.5468 -1.3437,0 -2.125,-0.9687 -0.9062,-1.1563 -0.9062,-3.7813 z m 1.1718,0 q 0,2.2969 0.5313,3.0547 0.5312,0.7579 1.3281,0.7579 0.7813,0 1.3203,-0.7579 0.5391,-0.7578 0.5391,-3.0547 0,-2.2968 -0.5391,-3.0468 -0.539,-0.75 -1.3359,-0.75 -0.7813,0 -1.2656,0.6562 -0.5782,0.8594 -0.5782,3.1406 z m 12.1538,-2.4374 -1.1406,0.0937 q -0.1406,-0.6719 -0.4219,-0.9844 -0.4687,-0.4843 -1.1406,-0.4843 -0.5469,0 -0.9688,0.3124 -0.5312,0.3907 -0.8437,1.1407 -0.3125,0.75 -0.3281,2.1562 0.4062,-0.625 1.0078,-0.9297 0.6015,-0.3046 1.2578,-0.3046 1.1406,0 1.9453,0.8359 0.8047,0.8359 0.8047,2.1797 0,0.875 -0.3828,1.625 -0.3828,0.75 -1.0391,1.1484 -0.6562,0.3984 -1.5,0.3984 -1.4219,0 -2.3281,-1.0468 -0.9063,-1.0469 -0.9063,-3.4688 0,-2.6875 1,-3.9218 0.875,-1.0626 2.3438,-1.0626 1.0937,0 1.7969,0.6172 0.7031,0.6172 0.8437,1.6954 z M 7.2068,2.4844 q 0,0.5937 0.25,1.1328 0.25,0.539 0.7032,0.8203 0.4531,0.2813 0.9531,0.2813 0.7187,0 1.2422,-0.586 0.5234,-0.5859 0.5234,-1.5859 0,-0.9688 -0.5156,-1.5235 Q 9.8475,0.4688 9.0662,0.4688 8.285,0.4688 7.7459,1.0234 7.2068,1.5781 7.2068,2.4844 Z m 6.1538,0.5625 1.1407,-0.1563 q 0.2031,0.9688 0.6718,1.3985 0.4688,0.4297 1.1563,0.4297 0.7969,0 1.3515,-0.5547 0.5547,-0.5547 0.5547,-1.3829 0,-0.7968 -0.5078,-1.3046 -0.5078,-0.5078 -1.3047,-0.5078 -0.3281,0 -0.8125,0.125 l 0.125,-1 q 0.125,0.0156 0.1875,0.0156 0.7344,0 1.3203,-0.3828 0.586,-0.3828 0.586,-1.1797 0,-0.625 -0.4297,-1.0391 -0.4297,-0.414 -1.1016,-0.414 -0.6718,0 -1.1093,0.4218 -0.4375,0.4219 -0.5782,1.25 L 13.47,-1.4375 q 0.2188,-1.1406 0.9609,-1.7734 0.7422,-0.6329 1.836,-0.6329 0.7656,0 1.4062,0.3282 0.6407,0.3281 0.9844,0.8906 0.3438,0.5625 0.3438,1.2031 0,0.5938 -0.3282,1.0938 -0.3281,0.5 -0.9531,0.7812 0.8125,0.2031 1.2734,0.7969 0.461,0.5938 0.461,1.5 0,1.2188 -0.8906,2.0703 -0.8907,0.8516 -2.25,0.8516 -1.2188,0 -2.0313,-0.7344 Q 13.47,4.2031 13.3606,3.0469 Z"
         id="path67"
         inkscape:connector-curvature="0" />
    </g>
    <g
       transform="matrix(0.66679039,0,0,0.69578961,47.406384,124.63358)"
       style="font-size:13.33329964px;font-family:SansSerif;color-interpolation:linearRGB;fill:#ffffff;stroke:#ffffff;color-rendering:optimizeQuality;image-rendering:optimizeQuality;text-rendering:geometricPrecision"
       id="g73">
      <path
         style="stroke:none"
         d="m -19.9531,0.9062 q 0,-1.6406 0.3359,-2.6484 0.336,-1.0078 1.0078,-1.5547 0.6719,-0.5469 1.6875,-0.5469 0.75,0 1.3125,0.3047 0.5625,0.3047 0.9297,0.8672 0.3672,0.5625 0.5781,1.3828 0.211,0.8203 0.211,2.1953 0,1.6407 -0.336,2.6485 -0.3359,1.0078 -1.0078,1.5547 -0.6718,0.5468 -1.6875,0.5468 -1.3437,0 -2.125,-0.9687 -0.9062,-1.1563 -0.9062,-3.7813 z m 1.1719,0 q 0,2.2969 0.5312,3.0547 0.5312,0.7579 1.3281,0.7579 0.7813,0 1.3203,-0.7579 0.5391,-0.7578 0.5391,-3.0547 0,-2.2968 -0.5391,-3.0468 -0.539,-0.75 -1.3359,-0.75 -0.7813,0 -1.2656,0.6562 -0.5781,0.8594 -0.5781,3.1406 z M -11.9087,5.5 V 4.2031 h 1.2969 V 5.5 Z m 9.058,-1.0938 V 5.5 H -9.007 q -0.0156,-0.4062 0.1407,-0.7969 0.2343,-0.625 0.75,-1.2343 0.5156,-0.6094 1.5,-1.4063 1.5156,-1.25 2.0468,-1.9766 0.5313,-0.7265 0.5313,-1.3671 0,-0.6876 -0.4844,-1.1485 -0.4844,-0.4609 -1.2656,-0.4609 -0.8281,0 -1.3203,0.4922 -0.4922,0.4922 -0.5078,1.3672 l -1.1719,-0.125 q 0.125,-1.3126 0.9062,-2 0.7813,-0.6876 2.1094,-0.6876 1.3438,0 2.125,0.7422 0.7813,0.7422 0.7813,1.836 0,0.5625 -0.2266,1.1015 -0.2266,0.5391 -0.7578,1.1407 -0.5313,0.6015 -1.7656,1.6328 -1.0313,0.8594 -1.3203,1.1718 -0.2891,0.3126 -0.4766,0.625 z M -1.2751,3.3438 -0.1813,3.25 q 0.1406,0.7656 0.5312,1.1172 0.3907,0.3516 1.0157,0.3516 0.5156,0 0.914,-0.2422 Q 2.6781,4.2344 2.9359,3.8359 3.1937,3.4375 3.3578,2.75 q 0.164,-0.6875 0.164,-1.4062 0,-0.0782 0,-0.2188 -0.3437,0.5469 -0.9375,0.8828 -0.5937,0.336 -1.2812,0.336 -1.1563,0 -1.9532,-0.836 -0.7968,-0.8359 -0.7968,-2.2109 0,-1.4219 0.8281,-2.2813 0.8281,-0.8594 2.0937,-0.8594 0.9063,0 1.6563,0.4922 0.75,0.4922 1.1406,1.3907 0.3906,0.8984 0.3906,2.6171 0,1.7813 -0.3828,2.836 -0.3828,1.0547 -1.1484,1.6094 -0.7656,0.5546 -1.7969,0.5546 -1.0937,0 -1.789,-0.6015 -0.6954,-0.6016 -0.8204,-1.7109 z m 4.6719,-4.1094 q 0,-0.9844 -0.5234,-1.5547 -0.5235,-0.5703 -1.2578,-0.5703 -0.7657,0 -1.3282,0.6172 -0.5625,0.6172 -0.5625,1.6172 0,0.875 0.5313,1.4296 0.5312,0.5547 1.3281,0.5547 0.7969,0 1.3047,-0.5547 0.5078,-0.5546 0.5078,-1.539 z m 2.56,3.8125 1.1407,-0.1563 q 0.2031,0.9688 0.6718,1.3985 0.4688,0.4297 1.1563,0.4297 0.7969,0 1.3516,-0.5547 0.5546,-0.5547 0.5546,-1.3829 0,-0.7968 -0.5078,-1.3046 -0.5078,-0.5078 -1.3047,-0.5078 -0.3281,0 -0.8125,0.125 l 0.125,-1 q 0.125,0.0156 0.1875,0.0156 0.7344,0 1.3204,-0.3828 0.5859,-0.3828 0.5859,-1.1797 0,-0.625 -0.4297,-1.0391 -0.4297,-0.414 -1.1016,-0.414 -0.6718,0 -1.1093,0.4218 -0.4375,0.4219 -0.5782,1.25 L 6.0662,-1.4375 q 0.2188,-1.1406 0.961,-1.7734 0.7421,-0.6329 1.8359,-0.6329 0.7656,0 1.4062,0.3282 0.6407,0.3281 0.9844,0.8906 0.3438,0.5625 0.3438,1.2031 0,0.5938 -0.3282,1.0938 -0.3281,0.5 -0.9531,0.7812 0.8125,0.2031 1.2735,0.7969 0.4609,0.5938 0.4609,1.5 0,1.2188 -0.8906,2.0703 -0.8907,0.8516 -2.25,0.8516 -1.2188,0 -2.0313,-0.7344 Q 6.0662,4.2031 5.9568,3.0469 Z m 7.4663,-5.6407 v -1.0937 h 6.0313 v 0.8906 Q 18.5638,-1.8438 17.6888,-0.2812 16.8138,1.2812 16.345,2.9375 16.0013,4.1094 15.9075,5.5 h -1.1719 q 0.0157,-1.0938 0.4297,-2.6484 0.4141,-1.5547 1.1797,-3 0.7656,-1.4454 1.6406,-2.4454 z"
         id="path71"
         inkscape:connector-curvature="0" />
    </g>
    <g
       transform="matrix(0.66679039,0,0,0.69578961,94.415105,77.667785)"
       style="font-size:13.33329964px;font-family:SansSerif;color-interpolation:linearRGB;fill:#ffffff;stroke:#ffffff;color-rendering:optimizeQuality;image-rendering:optimizeQuality;text-rendering:geometricPrecision"
       id="g77">
      <path
         style="stroke:none"
         d="m -23.9531,0.9062 q 0,-1.6406 0.3359,-2.6484 0.336,-1.0078 1.0078,-1.5547 0.6719,-0.5469 1.6875,-0.5469 0.75,0 1.3125,0.3047 0.5625,0.3047 0.9297,0.8672 0.3672,0.5625 0.5781,1.3828 0.211,0.8203 0.211,2.1953 0,1.6407 -0.336,2.6485 -0.3359,1.0078 -1.0078,1.5547 -0.6718,0.5468 -1.6875,0.5468 -1.3437,0 -2.125,-0.9687 -0.9062,-1.1563 -0.9062,-3.7813 z m 1.1719,0 q 0,2.2969 0.5312,3.0547 0.5312,0.7579 1.3281,0.7579 0.7813,0 1.3203,-0.7579 0.5391,-0.7578 0.5391,-3.0547 0,-2.2968 -0.5391,-3.0468 -0.539,-0.75 -1.3359,-0.75 -0.7813,0 -1.2656,0.6562 -0.5781,0.8594 -0.5781,3.1406 z M -15.9087,5.5 V 4.2031 h 1.2969 V 5.5 Z m 3.058,-4.5938 q 0,-1.6406 0.3359,-2.6484 0.336,-1.0078 1.0078,-1.5547 0.6719,-0.5469 1.6875,-0.5469 0.75,0 1.3125,0.3047 0.5625,0.3047 0.9297,0.8672 0.3672,0.5625 0.5782,1.3828 0.2109,0.8203 0.2109,2.1953 0,1.6407 -0.3359,2.6485 -0.336,1.0078 -1.0079,1.5547 -0.6718,0.5468 -1.6875,0.5468 -1.3437,0 -2.125,-0.9687 -0.9062,-1.1563 -0.9062,-3.7813 z m 1.1719,0 q 0,2.2969 0.5312,3.0547 0.5313,0.7579 1.3281,0.7579 0.7813,0 1.3204,-0.7579 0.539,-0.7578 0.539,-3.0547 0,-2.2968 -0.539,-3.0468 -0.5391,-0.75 -1.336,-0.75 -0.7812,0 -1.2656,0.6562 -0.5781,0.8594 -0.5781,3.1406 z M -1.1501,5.5 h -1.1406 v -7.2812 q -0.4219,0.3906 -1.0859,0.789 -0.6641,0.3984 -1.1953,0.586 v -1.1094 q 0.9531,-0.4375 1.6718,-1.0782 0.7188,-0.6406 1.0157,-1.25 h 0.7343 z m 7.4038,0 H 5.1131 v -7.2812 q -0.4219,0.3906 -1.0859,0.789 -0.6641,0.3984 -1.1954,0.586 v -1.1094 q 0.9532,-0.4375 1.6719,-1.0782 0.7188,-0.6406 1.0156,-1.25 H 6.2537 Z M 9.3606,0.9062 q 0,-1.6406 0.336,-2.6484 0.3359,-1.0078 1.0078,-1.5547 0.6719,-0.5469 1.6875,-0.5469 0.75,0 1.3125,0.3047 0.5625,0.3047 0.9297,0.8672 0.3672,0.5625 0.5781,1.3828 0.2109,0.8203 0.2109,2.1953 0,1.6407 -0.3359,2.6485 -0.3359,1.0078 -1.0078,1.5547 -0.6719,0.5468 -1.6875,0.5468 -1.3438,0 -2.125,-0.9687 Q 9.3606,3.5312 9.3606,0.9062 Z m 1.1719,0 q 0,2.2969 0.5313,3.0547 0.5312,0.7579 1.3281,0.7579 0.7812,0 1.3203,-0.7579 0.5391,-0.7578 0.5391,-3.0547 0,-2.2968 -0.5391,-3.0468 -0.5391,-0.75 -1.3359,-0.75 -0.7813,0 -1.2657,0.6562 -0.5781,0.8594 -0.5781,3.1406 z m 12.2319,3.5 V 5.5 h -6.1562 q -0.0157,-0.4062 0.1406,-0.7969 0.2344,-0.625 0.75,-1.2343 0.5156,-0.6094 1.5,-1.4063 1.5156,-1.25 2.0469,-1.9766 0.5312,-0.7265 0.5312,-1.3671 0,-0.6876 -0.4844,-1.1485 -0.4843,-0.4609 -1.2656,-0.4609 -0.8281,0 -1.3203,0.4922 -0.4922,0.4922 -0.5078,1.3672 l -1.1719,-0.125 q 0.125,-1.3126 0.9063,-2 0.7812,-0.6876 2.1093,-0.6876 1.3438,0 2.125,0.7422 0.7813,0.7422 0.7813,1.836 0,0.5625 -0.2266,1.1015 -0.2265,0.5391 -0.7578,1.1407 -0.5312,0.6015 -1.7656,1.6328 -1.0313,0.8594 -1.3203,1.1718 -0.2891,0.3126 -0.4766,0.625 z"
         id="path75"
         inkscape:connector-curvature="0" />
    </g>
  </g>
</svg>
